<?xml version="1.0" encoding="UTF-8" standalone="no"?>
<svg xmlns:rdf="http://www.w3.org/1999/02/22-rdf-syntax-ns#" xmlns="http://www.w3.org/2000/svg" xml:space="preserve" height="287.67" viewBox="0 0 300.38284 287.66626" width="300.38" version="1.1" xmlns:cc="http://creativecommons.org/ns#" xmlns:dc="http://purl.org/dc/elements/1.1/"><g transform="matrix(1.25 0 0 -1.25 -233.31 805.5)"><path d="m160.71 0.47461c-0.07 0.16875-0.85 0.42086-0.9 0.59959-0.3 0.835 0.2 1.4996 0.3 2.0996-0.33 0.065-0.48 0.5541-0.6 0.6016-1.09 0.3662-2.47-0.2813-3.6 0-0.6 0.14-1.45 1.3687-2.1 1.5-1.39 0.2725-2.13-0.6387-3.3 0.2988-0.56 0.4313-1.78 4.2459-2.1 5.0998-0.33-0.178-0.56 0.131-0.9 0s-0.78-1.0306-1.2-1.1994c-2.75-1.115-2.64 1.1434-3.9 2.0994-0.46 0.338-1.25 0.337-1.8 0.6 0 0-0.23-0.889-0.3-1.199 0.35-0.328 1.36-0.693 1.5-1.1996 0.08-0.3375-0.14-0.8924 0-1.2012-0.26-0.2062-0.53-0.1783-0.6-0.5996-0.55 0-1.26 0.1225-1.8 0-0.3 0.4125-1.09 1.0125-1.2 1.5-0.06 0.2063 0.13 0.6944 0 0.9004-0.23 0.319-1.4 0.563-1.5 0.9-0.45 1.359 0.3 2.389 0.6 3.299h-0.6c-0.44 0.141-1.32 1.716-1.2 2.401 0.04 0.243 0.81 0.721 0.9 0.9 0.1 0.206 0.14 1.059 0.3 1.199 0.24 0.215 0.69 0.028 0.9 0.301-0.53 1.134-0.49 1.631-0.9 3-0.16-0.103-0.74 0-0.9 0-0.79-1.669-0.98-1.05-0.6-3.6-0.3-0.141-0.94-0.835-1.2-0.9-0.9-0.244-2.13 0.254-3 0-0.3-0.094-0.47-1.089-0.9-1.201-0.33-0.094-1.44 0.236-1.2 0.301-0.36 0.637-0.81 1.255-1.2 2.099-0.05 0.094-0.57 0.216-0.6 0.301-0.2 0.487 0.05 1.451-0.3 1.799-0.55 0.506-1.52 0.133-2.1 0.601-0.43 0.328-1.25 4.677-0.6 5.1 0.93 0.6 1.47 0.028 2.1-0.301 0.47-0.254 0.22-0.58 0.3-1.199 0.2 0.065 0.9 0.299 0.9 0.299-0.17 0.9-0.23 1.08-0.3 2.101-0.33 0.065-0.48 0.553-0.6 0.6-0.91 0.309-2.36-0.235-3.3 0l-0.3 0.6c-0.49 0.308-0.92 0.019-1.5 0.3 0.33-1.603 0.49-2.531 0.9-3.9-0.56-0.235-0.15-0.027-0.3-0.6-1.44-0.112-2.71-0.581-3.6 0.6-1.17 1.529-0.74 3.075 0 4.5-0.6 0.721-1.64 1.565-1.8 2.699-0.06 0.356 0.18 1.181 0 1.5-0.07 0.094-1.36 0.264-1.5 0.301-0.09 0.581-0.08 1.331-0.3 2.1 0.05 0.008 1.08 0.198 1.2 0.3 0.33 0.272 0.29 1.257 0.6 1.5-0.66-0.018-4.01 0.289-4.8 0.899-0.75 0.562 0.39 3.619 0 4.801-0.22 0.627-1.17 1.265-1.5 1.8-1.36 2.175-2.35 3.815-3.9 5.7-0.26 0.308-1.05 0.599-1.2 1.199-0.94 3.684 0.9 2.353 1.8 2.699 0.21 0.076 1.17 0.967 1.5 1.201-0.55 1.173-1.91 3.028-0.9 4.801 0.18 0.319 1.01 0.497 1.2 0.9 0.2 0.44-0.42 0.214-0.3 0.899 0.29 1.761 2.26 1.801 3.9 1.801-0.18 0.065-1.14 0.881-1.2 0.898-2.9 0.854-2.46-0.41-3.6 2.402-1.34-1.772-2.34-2.196-5.1-2.701-0.23 0.469-0.55 0.58-0.9 0.899 0.54 1.36 0.56 2.017 1.2 3.302-0.48 0.318-1.44 0.739-1.8 1.198-0.34 0.413-0.23 1.154-0.6 1.502-0.31 0.281-0.834 0.065-1.199 0.298-0.385 0.235-0.911 1.127-1.201 1.502 0.121 0.207 0 0.946 0 1.2 1.519 0.383 1.697 0.552 3.6 0.298-0.17 0.329 0.13 0.543 0 0.901l-0.6 0.301c-0.65 0.983-0.34 1.575-0.6 3 0.19 0.102 1.09 0.439 1.2 0.599 0.84 1.161 1.28 2.147 2.1 3.299-0.59 0.394-2.19 1.088-2.4 1.801-0.16 0.516 0.15 0.976 0 1.5 0.79 0.206 2.17 0.478 3 0.9 0.18 0.084 0.63 0.824 0.9 0.899 0.53 0.131 0.97-0.14 1.5 0-0.18 0.685-0.34 1.35-0.6 2.4-0.75 0.029-0.84-0.581-1.8-0.299-0.18 0.046-0.62 0.759-0.9 0.899 1.14 2.128-0.14 1.548 3 1.8 0.29 0.798 0.62 1.717 0.9 2.401h0.3c0.24 1.266-0.4 1.705-0.3 3 0.07 1.076 1.02 3.246 1.2 4.196 0.12 0.7-0.23 1.44 0 2.1 0.04 0.13 0.52 0.28 0.6 0.6 2.48-0.88 0.75 0.52 2.4-1.5 0.33 0.16 0.54-0.14 0.9 0 0.08 0.03 0.7 0.86 0.9 0.9 1.29 0.29 1.48-0.55 2.7 0 1.32 0.6-0.14 1.5-0.3 2.1-0.09 0.34 0.12 0.87 0 1.2 2.21 1.59 3.03 2.51 6.3 2.4 0.17-0.41 0.3-1.1 0.6-1.5 0.22-0.31 0.98-0.33 1.2-0.6v3.3c0.07 0.37 1.74 2.4 2.1 3 0.81-0.06 1.57 0 2.4 0 0.09-0.19 0.42-1.16 0.6-1.2 2.7-0.6 3.42 2.33 4.8 2.7 0.85 0.23 1.34-0.16 2.1-0.3 0.29 0.36 0.44 1.35 0.9 1.5 0.32 0.11 0.89-0.16 1.2 0 0.06-0.31 0.55-0.47 0.6-0.6 0.17-0.51-0.15-0.98 0-1.5-0.27-0.05-1.61-0.09-2.1-0.3-0.52-0.23-0.75-1.65-1.2-1.8h-0.6c-0.16-0.32 0.16-0.89 0-1.2 0.21-0.32 0.72-0.83 0.9-1.2 0.39 0.36 1.23 0.42 1.5 0.9 0.15 0.28-0.09 0.89 0 1.2 0.12 0.46 0.94 0.83 1.2 1.2 0.57-0.11 1.22 0.13 1.8 0 1.03-0.24 1.28-1.44 2.7-1.5 1.62-0.07 3.15 1.5 5.4 0.9 1.53-0.41 1.15-2.38 2.1-3 1.05-0.7 2.52-0.17 3.9-0.6 0.33-0.11 0.84-0.74 1.2-0.9 0-0.26-0.12-0.97 0-1.2 0.16-0.32 0.69-0.2 0.9-0.6 1.41 0.45 3.19 1.44 4.8 0.6 0.38-0.2 0.58-1.26 0.9-1.5 0.3-0.24 0.86-0.13 1.2-0.3 0.29-0.15 0.9-1.05 1.2-1.2 0.7-0.37 1.41-0.33 2.1-0.6 0 0 0.38-1.4 0.3-1.8-0.11-0.45-1.12-0.86-1.2-1.2-0.23-0.88 0.38-0.76 0.3-1.5 0.42-0.31 0.61-0.766 0.9-1.196 1.17 0.159 2.5 0.524 3.6 0 0.66-0.329 0.46-0.994 0.9-1.5 0.59-0.703 1.96-1.285 2.7-1.801-0.13-0.975-0.43-1.958-0.3-2.699 0.11-0.675 1.2-1.313 1.5-1.801 0.38-0.646 0.28-1.114 0.6-1.799-0.1-0.075-0.87-0.489-0.9-0.601-0.14-0.347 0.17-0.58 0-0.899 2.39-1.697 2.84-2.606 0-4.201 1.78-0.927 3.33-1.875 5.1-2.699-0.14-0.394 0-1.078 0-1.5-0.36-0.168-0.87-0.797-1.2-0.901-1.2-0.375-1.94 0.038-2.7-0.599-0.32-0.271-0.18-0.995-0.3-1.5-0.67 0.234-0.46-0.834-0.6-1.199 0.05 0 1.68 0.111 1.2 0.298 1.93-0.223 5.3-0.458 3.6-3-0.16-0.233-1.13-0.364-1.2-0.599-0.19-0.59 0.53-1.442 0.3-2.399-0.2-0.76-1.31-0.911-1.5-1.201-0.62-0.937-0.89-1.209 0.3-1.799-0.15-2.053-0.25-1.97 0.9-3 0.06-0.066 0.81 0 0.9 0 0.05-0.337 0.03-1.717 0.3-2.101l1.8-0.899c-0.41-1.257-0.9-2.467-0.6-3.3 0.07-0.244 0.85-0.975 0.9-1.2 0.11-0.693-0.41-0.442-0.3-0.902-0.35 0.076-1.17 0.301-1.2 0.301-0.75 2.521-0.47 3.395-2.1 1.201-0.8 0.094-0.7 0.383-1.2 0.6 0 0-0.05-1.886 0-2.401 2.4-0.554 1.5-0.14 2.7-1.799 0.26 0.188 0.58-0.122 0.9 0 0.31 0.122 0.37 1.04 0.6 1.2 1.39 0.983 3.25 0.308 4.5 0-0.14-0.583 0.16-1.239 0-1.801-0.1-0.348-1.1-1.05-1.2-1.5-0.09-0.338-0.17-1.65 0.3-1.5v-0.6c-0.07-0.187-0.86-0.806-0.9-0.9-0.08-0.179 0.07-0.74 0-0.899 2.22-0.975 2.51-1.144 3.6-3.3l0.6-0.6c0.09-0.656-0.53-1.153-0.3-2.1 0.11-0.525 1.11-1.173 1.2-1.8 0.08-0.667-0.51-1.397-0.3-2.401 0.12-0.6 1.36-1.612 1.5-2.099 0.18-0.657-0.11-1.435 0-2.1-1.97-1.154-1.88-0.666-2.1-3.6 0.49-0.31 0.18-0.263 0.3-0.9h0.6c0.03 0.6-0.06 1.509 0 2.4 0.06-0.01 1.67-0.057 1.2-0.3 0.11-0.357 0.6-1.539 0.9-1.801 0.03-0.046 0.01-0.842 0-0.899-0.13-0.487-0.89-1.078-1.2-1.5 0.24-0.393 0.68-0.845 0.9-1.201 0.21-0.366 0.83-1.256 0.9-1.5 0.32-1.425-0.58-2.615-0.6-3.299-0.05-1.2 0.73-1.819 0.6-3.3l-0.6-0.901c-0.69-3.319-0.15-2.803-3.3-3.599-0.14 0.6-0.46 1.715-0.6 2.4-0.58 0.15-0.38-0.264-0.6 0.299-1.05-0.048-2.38-0.252-3-0.299 0.13-2.296-0.02-3.121-0.6-5.0996-0.87-0.1963-2.35-1.0228-3.6-0.6016-0.23 0.0663-0.58 0.7404-0.9 0.9002 0 0.694 0.1 1.396 0 2.1h-0.6c-0.3-0.629 0-0.956-0.3-1.5-0.42-0.7414-1.93-1.3861-2.1-2.3986-0.29-1.6975 0.82-1.7445 0.6-3.3008-0.07-0.4212-2.63-3.8254-3-3.9004-1.66-0.35623-1.9 0.7699-2.7 1.2012-0.98 0.5062-2.11 0.778-3 1.1992 0.49 1.9688 1.64 5.6358-2.1 4.8008-1.32-0.3-0.96-1.2092-1.5-2.4004-0.09-0.1962-0.86-0.4021-0.9-0.5996-0.27-1.3788 0.73-2.5792 0-3.9004-0.43-0.76875-1.51-0.53414-2.4-0.90039zm-89.399 38.099c-0.169 0.281-0.695 0.085-0.901 0.301-0.431 0.421 0.001 1.518-0.299 2.1-0.281 0.525-1.865 1.294-3 0.9 0 0-0.562-1.605-1.5-1.801-0.872-0.187-1.998 0.282-2.4 0.301l-0.301 2.4-1.5 1.799 0.901 0.299c0.581 0.891 0.655 1.249 1.199 2.402-0.319-0.15-0.871 0.113-1.199 0-1.032-0.356-2.147-3.394-3.301-3.9-1.463-0.656-3.983-0.582-5.699-0.9-0.309 0.421-0.768 0.609-1.2 0.9 0.01 0 0 0.853 0 0.9 0.375 0.094 0.479 0.749 0 0.598-0.065-0.017-0.253-0.504-0.3-0.598-0.834 0-1.875 0.028-2.7 0-0.356 1.969-1.201 2.868-2.101 4.2-0.365-0.282-0.843-0.03-1.199-0.301-0.122-0.094-0.571-1.116-0.6-1.199 2.016-0.563-3.385 0.113-1.201 0.3-0.488 0.14-0.833 0.008-1.199 0.299l-1.801 2.1c-0.469 0.834-0.224 2.437-1.199 3-0.45 0.252-1.744 0.234-2.1 0.301-1.471 3.861-1.265 1.302-3.6 2.398-0.383 0.17-0.563 1.219-0.9 1.502-0.309 0.234-0.872 0.121-1.201 0.299l-0.299 0.599c-1.311 0.845-2.55 0.555-3.9 0.602-0.178 0.421-0.29 1.293-0.6 1.799-0.515 0.806-1.594 0.666-2.4 1.201-1.032 0.665-3.478 4.555-4.2 4.799-0.095 0.027-1.265-0.337-1.799-0.301-1.107 0.066-2.991 0.659-3.9 0.902 0 1.574 0.132 2.651 0.301 3.899-0.694-0.179 0.101 0.337-0.602 0.299l-0.599-0.6c-1.013-0.271-2.167 0.705-2.401 1.201-0.497 1.041-0.075 1.97 0 3 0.515 0 1.304-0.159 1.801 0-0.272 3.431 0.092 3.478-3.002 3.299-0.084 0.198-0.7395 0.76-0.8983 0.9 0.3463 1.183 0.2621 1.726 0.5993 3.002-0.1309-0.02-1.2935 0.224-1.7985 0.299 0 0 0.1313-1.556-3 0.6 0.44 3.31-1.0971 4.453-0.5996 8.099-0.8813 0.507-1.8949 1.276-2.7012 1.801 0.1025 0.525-0.1125 0.966 0 1.5 0.15 0.751 1.0887 1.743 1.2012 2.699 0.1112 1.042-0.0108 1.932-0.3008 2.7-0.01 0.018-0.5996 0.302-0.5996 0.302-0.3375 1.855 0.4109 4.065 0.5996 5.695 0.365 0.13 0.7691-0.02 0.9004 0.3s-0.1687 0.88 0 1.2c-0.2163 0.26-1.0237 0.6-1.2012 0.9-0.975 1.58-0.0463 3-0.2988 4.8 0 0-0.5346 0.27-0.5996 0.3v0.6c-0.085 0.47-0.375 1.48 0 2.4 0.0737 0.19 0.7297 0.44 0.8984 0.6v0.6c3.1025 0.22 3.1301 0.25 4.7989-1.8 0.2262 0.08 0.8636 0.32 0.9023 0.3-0.1313 0.43-0.5634 1-0.5996 1.2-0.095 0.44 0.2969 1.8 0.2969 1.8 0.1312 0.1 0.8461 0.43 0.9023 0.6 0.2238 0.7-0.0662 1.66 0 2.4-2.7475-1.27-4.537-1.01-3.3008 2.4 0.1513 0.43-0.0279 0.69 0.3008 0.9 0.5438 0.35 1.3764-0.02 2.0977 0.3 0.1875 0.09 0.7048 1.17 0.9023 1.2 1.9309 0.36 2.7099-1.6 3.3009-2.7 0.337 0.17 0.823 0.58 1.199 0.6-1.041 2.08-0.629 1.78 0 3.6-0.066 0.03 0 0.83 0 0.9-0.16-0.44-0.328 0.78-0.301 0.9 0.385 1.78 2.849 1.62 4.5 1.5-0.093 0.15 0.057 0.73 0 0.9-0.32 0.81-2.287 1.67-3 2.1 0.178 0.51-0.187 0.99 0 1.5 0.103 0.3 1.754 1.72 2.1 1.8 1.239 0.3 3.44-0.48 4.199-0.9 0.281-0.16 0.779-1.13 1.201-1.2 0.955-0.16 1.294 0.38 2.1 0.6-0.019 0 0 0.86 0 0.9-3.74 0.42-4.725 1.34-2.701 4.2 1.604-0.41 1.99-0.19 3.601-0.6 0.123 0.99 0.395 2.93 1.201 3.3 0.543 0.25 1.479-0.08 2.098 0 3.189 0.43 3.263 1.81 5.401-1.2 1.537 0.17 2.485 0.44 3.601 0l0.6-0.6c1.002-0.14 2.034 0.55 2.699 0.6 0.854 0.06 1.153-0.3 1.799-0.3 0.187-0.76 0.339-1.41 0.601-2.4-0.477-0.38-0.965-0.57-1.5-0.9v-0.6c0.994-0.47 2.119-1.21 3-1.5 1.032-0.34 2.635-0.48 3.6 0l0.6 0.6c1.546 0.23 2.317-0.74 3.3-0.9 0.675-0.12 1.771 0.27 2.399 0 0.919-0.4 0.862-2.26 1.5-3 0.666-0.78 2.175-1.15 3-1.8-0.281-0.73 0.9 0 0.9 0 0.421 2.73-0.036 2.27 2.701 2.7 0.45-0.85 1.189-2.67 2.399-2.7 0.525-0.02 0.169 0.42 0.9 0.3 0.15 0.43-0.16 1.07 0 1.5 0.056 0.16 0.751 0.6 0.901 0.9 0.328-0.13 0.853 0.09 1.199 0 0.937-0.26 1.444-2.43 1.801-3.3 3.356-0.14 2.662 0.17 3.9-2.1 1.34 0.18 2.034 0.09 3.299 0 0.065-0.32 0.555-0.47 0.601-0.6 0.225-0.65-0.225-1.44 0-2.1 0.178-0.53 1.443-1.04 1.799-1.5 0.384-0.51 0.441-1.39 0.901-1.8 0.881-0.79 2.258-0.83 2.699-2.1 0.225-0.66-0.131-1.4 0-2.1 0.056-0.35 0.863-1.44 0.9-1.8 0.225-2.28-1.098-2.49-2.4-3.3-0.394 0.53-0.797 0.99-1.199 1.5 0.75 0.14-0.901 0.6-0.901 0.6 0.281-1.62-0.235-1.57 1.5-2.7 0.694-0.46 1.145-0.41 1.801-0.9 0.197-0.16 0.365-0.79 0.6-0.9 1.021-0.49 2.269-0.03 3.3-0.6 0.478-0.27 0.225-1.21 0.6-1.5-0.469-0.86-0.113-0.99-0.9-1.5-0.45-0.29-0.929-0.35-1.5-0.6 0.318-0.21 0.534-1.05 0.9-1.2 0.862-0.34 1.734 0.09 2.4-0.3 0.59-0.35 0.196-0.93 0.6-1.5 0.252-0.37 1.265-0.55 1.5-0.9 0.271-0.43 1.368-3.662 1.199-4.497-0.104-0.477-1.04-0.862-1.199-1.199-0.329-0.703-0.067-1.18-0.301-2.1 0.394-0.017 0.44-0.564 0.6-0.601 0.637-0.169 0.863 0.517 1.201 0.601 1.819 0.413 2.202-0.657 3-1.201-0.15-1.284-0.348-2.868-0.301-3.898-1.425-0.723-2.016-0.273-2.099-2.401-0.094-2.064 1.02-1.932 1.199-2.701 0.14-0.627-0.29-1.678-0.299-1.799-0.225-2.645 0.731-2.915 0-5.4 0.402-0.149 1.077 0 1.5 0 0.9-1.921 0.786-1.135 0.299-3.301-0.404-0.121-0.947-0.073-1.199-0.299-0.667-0.617-1.267-1.715-1.801-2.4 1.294-1.03 2.214-2.054 3.601-3-0.16-0.525 0.15-0.984 0-1.5-0.056-0.178-0.835-0.891-0.9-1.201-0.281-1.303-0.132-2.138-0.301-3.299 0.338 0.009 1.632 0.224 2.401 0.299 0 0 0.357-1.387 0.3-1.799-0.028-0.151-1.435-3.834-1.5-3.901-0.3-0.28-1.191-0.402-1.5-0.599 0.44-1.386 1.462-3.883-0.3-4.5-0.517-0.189-0.994 0.177-1.5 0-0.217 0.562-0.366 1.077-0.6 1.5-1.5 2.615-0.263 0.17-1.5 0.601 0-0.545 0.131-1.285 0-1.8 0.094-0.057 0.581-0.245 0.6-0.301 0.131-0.441 0.299-0.375 0.599-0.6-0.244-0.656-0.516-1.34-0.599-1.799-0.535 0.253-2.419 1.039-3 0.899-0.067-0.019-0.751-0.861-0.901-0.899-0.347-0.093-0.872 0.122-1.199 0-0.235 0.224-0.939 1.407-1.201 1.5-0.328 0.103-0.899-0.168-1.199 0 1.05 0-0.591-3.881-0.6-3.9 1.537-0.573 1.603-0.75 2.699-1.5-0.141-0.525 0-1.267 0-1.801-1.312-0.254-1.574-0.43-3.299-0.299-0.385-0.787-0.291-0.695-0.9-1.201-0.919 0.563-1.04 0.938-2.4 1.5-0.348 3.046-0.16 3.009 2.4 3-0.619 1.246-0.507 1.716-0.9 3.301-0.75-0.994-1.838-2.12-3-2.701h-0.301c-0.515-1.041-0.14-2.504-0.299-3.6 0.637-0.122 0.563 0.001 0.9-0.299 0.44-0.412 1.462-0.723 1.799-1.201 0.14-0.206 0.244-1.256 0-0.9-0.094-0.048-0.431-1.116-0.599-1.199-1.425-0.742-3.591 0.29-4.801 0-0.854-0.217-1.294-2.13-2.1-2.401h-0.599zm185.7 3.901l-0.6 0.3c-0.34 0.515-0.14 0.807-0.3 1.5-1.37-0.366-1.94-0.245-3.3-0.601-1.83 3.927-1.17 2.821-5.7 3l-1.5 0.601c-0.24 0.047-0.54-0.263-0.3-0.3-0.42-0.188-1.09 0.177-1.5 0-0.39-0.169-0.45-2.073-2.1-1.5-0.04 0.008-0.72 1.144 0 0.9 0 0 0.23 1.47 0.3 1.799-1.38 0.975-1.16 0.629-2.1 2.101-0.89-0.262-1.21-0.207-1.8-0.601-1.14-0.76-0.54-1.416-0.3-1.199 0.1-0.667 0.88-0.639 0.6-1.801-0.08-0.281-1.04-0.655-1.2-0.899-0.25-0.375-0.16-0.723-0.3-1.201-0.1 0.019-1.06-0.224-1.5-0.299-0.12 1.49-0.25 3.027 0 4.799-0.73 0.075-2.61-0.028-3.6 0.301-0.43 0.131-1.37 1.441-1.8 1.799-0.38-0.169-1.12 0-1.5 0-0.14-0.488-0.2-1.022-0.3-1.799-0.84-0.216-2.06-1.022-3.6-0.6-0.19 0.047-0.81 0.861-0.9 0.899h-0.6c-2.18 2.119 1.19 2.597 2.4 3.301 0.37 0.215 0.83 0.964 1.2 1.199-0.5 0.337-0.83 0.553-1.2 0.9-1.31-0.929-2.78-2.024-5.1-1.199-0.51 0.169-1 1.058-1.5 1.199-0.57 0.15-1.23-0.114-1.8 0-0.31-1.191-0.97-3.553-2.4-3.599-0.47-0.019-0.88 0.468-1.5 0.599-0.08 0.319-0.57 0.469-0.6 0.6-0.28 0.796-0.25 2.109-0.3 2.699-2.2 0.564-3.69 1.201-6.3 1.502-0.44 1.181-0.73 1.977-1.2 2.998h-0.6v-0.598c-0.51-1.443-1.97-0.817-3-0.601-0.39 2.287-0.97 2.756-1.8 4.5-2.56-0.854-1.99-0.806-3.9 0 0 0.544 0.12 1.257 0 1.801l0.9 0.298c-0.01 0 0 0.853 0 0.901-1.52-0.226-2.36-0.048-3.6 0-0.11 0.675-0.84 0.591-0.6 1.801 0.01 0.065 0.95 1.17 0.9 1.199-0.85 0.356-1.28 2.399-1.5 3.301-2.49 0.627-3.65 0.553-5.4 1.8 0.1 0.675-0.23 1.453 0 2.1 0.2 0.561 1.7 1.002 2.1 1.498 0.47 0.591 0.57 2.007 1.2 2.4 0.68 0.433 1.34-0.093 1.8 0 0.06 0.01 0.32 0.554 0.6 0.6-0.01 0.02-0.54 1.783-0.3 1.801-2-0.224-2.59-0.197-4.5 0.301 0.13-1.407 0.48-3.432-0.9-3.901-0.34-0.121-0.89 0.141-1.2 0-0.08 0.319-0.56 0.469-0.6 0.6-0.48 1.387 0.65 1.949 0.3 3.301-0.2 0.721-4.29 4.085-5.1 5.099 0.36 0.338 0.14 0.563 0.3 1.201 0.72 0.188 1.94 0.749 2.7 0.899-3.45 0.854-5.15 2.081-3.6 5.4-1.04 0.741-3.62 3.524-3.3 5.396 0.06 0.42 1.1 0.9 1.2 1.2 0.11 0.33-0.15 0.88 0 1.2-0.66 0.38-4.05 2.89-4.2 3.3-0.21 0.54 0.12 1.23 0 1.8 0.13 0.03 0.97 0.17 1.2 0.3 0.22 0.13 0.12 0.79 0.3 0.9-0.48 0.81-1.88 1.88-2.1 2.7-0.35 1.25 0.56 3.51-0.6 3.9-0.68 0.22 0.9 1.8 0.9 1.8v0.3c0.21 0.11 0.78 1.04 0.9 1.2 0.31 0.44 0.51 0.57 0.9 0.9-0.64 0.93-2.18 2.5-1.5 4.5 0.07 0.22 0.74 0.58 0.9 0.9 0.83-0.14 1.49-0.28 2.1-0.3v3c0.06-0.65 0.02 3.15 0.3 3.6 0.19 0.31 1.44 0.35 1.8 0.6 0.21 0.15 0.32 1.03 0.6 1.2 0.69 0.43 2.05 0.69 2.7 0.9 0 0.78-0.27 2.27 0 3 0.32 0.88 1.75 0.81 2.7 1.2 0.3-0.44 0.85-0.76 1.2-1.2 0.27-0.36 0.39-0.84 0.6-1.2 0.24 0.73 0.89 2.83 1.5 3.3 1.05 0.82 2.15 0.49 3.6 0.3-0.13 0.21 0.05 0.68 0 0.9-0.09 0.32-1.25 1.25-1.5 1.5 0.27 0.39 0.43 1.12 0.6 1.5 0.98 0 1.84-0.13 3 0 0.47 0.05 1.2 0.87 2.4 0.6 0.26-0.06 0.94-1.11 1.2-1.2 0.33-0.12 0.87 0.14 1.2 0 1.71 2.43 0.6 2.56 4.2 3.3 1-1.43 1.91-4.49 4.8-3.9 0.17 0.03 0.88 1.13 1.2 1.2 1.11 0.24 1.73-0.64 3-0.3 0.29 0.08 0.63 1.04 0.9 1.2 0.48 0.3 0.96-0.01 1.5 0.3 0.3 0.17 0.35 1.02 0.6 1.2 0.51 0.37 4.23 1.83 5.4 1.5 0.52-0.15 0.83-1.34 1.5-1.5 1.6-0.4 2.34 0.69 3.9 0.3 1.06-0.27 1.73-2.34 2.1-3.3 4.11 0.56 2.74 0.1 5.1-1.5 0.48-0.33 1.06-0.27 1.5-0.6 0.26-0.2 0.59-1.1 0.9-1.2 1.22-0.4 2.64 0.31 3.9 0 0.52-0.14 1.07-0.92 1.5-1.2-0.1-0.49-0.32-1.35-0.3-1.5-0.72-0.32-1.48-0.89-2.1-1.2 1 0.08 2.39 0.4 3 0.3 1.06-0.16 3.72-2.22 3.9-3.3 0.15-0.97-1.38-2.16 0-2.7 0.73-0.29 1.9 0.13 2.7 0 0.7-0.11 2.06-0.96 2.7-1.2-0.14-0.39 0-1.08 0-1.5-2.05-0.96-2.44-1.04-4.5 0.3l-0.3 0.6c-1.06 0.18-0.86-0.55-1.5-0.6 0.07-0.46 0.31-1.39 0.3-1.5 2.37 0.23 3.52 0.23 4.8-1.2 2.27-2.55 0.98-3.28-1.8-4.2 0.16-0.33-0.14-0.55 0-0.9 0.12-0.33 1.08-0.87 1.2-1.2 0.11-0.33-0.14-0.88 0-1.2h0.6c0.06 0.03 0 1.09 0 1.2 0.39 0.2 0.7 0.2 0.9 0.6 1.6-0.53 4.31-1.6 4.5-3.3 0.26-2.56-2.86-2.5-4.5-2.4 0.7-1.71 0.92-2.64 0.6-4.8 0.71-0.26 1.04-0.14 1.8-0.3 0.06-0.32 0.55-0.47 0.6-0.6 0.54-1.59-0.08-1.52 0.9-2.7 0.37-0.47 1.03-0.79 1.5-1.2-0.08 0.27-0.58 1.04-0.6 1.2-0.15 1 0.56 1.25 0.3 2.1-0.11 0.3-1.26 0.98-1.5 1.2 0.13 0.39 0 1.07 0 1.5 1.47 0.29 1.32 1.35 3-0.3 0.53-0.54 0.3-0.99 0.6-1.8 0.28 0.18 0.88-0.13 1.2 0 0.23 0.1 0.51 1.26 0.6 1.5 1.19-0.57 2.74-0.71 3.3-1.8 0.13-0.27 0.92-4.26 0.9-4.5-0.05-0.49-0.82-0.95-0.6-2.1 0 0 1.36-2.368 1.5-2.697-1.04-0.281-1.29-0.665-2.4-0.898 0.16-0.104-0.17-0.806 0-0.901 0.44-0.262 1.04-0.197 1.5-0.301-0.02-0.337-0.2-1.809 0-2.4 0.07-0.252 0.97-0.722 1.2-0.9-0.71-1.49-0.88-2.351-1.5-3.899 0.64-0.309 1.21-0.208 1.8-0.601 0.23-0.168 0.62-1.096 0.9-1.2 0.94-0.383 1.85-0.018 2.7-0.298 0.55-0.198 0.93-0.91 1.8-0.901 1.84 0.019 2.23 1.912 2.7 3.299 0.27-0.159 1-0.608 1.2-0.598-0.12-1.612 0.08-2.26 0.3-3.601 0.05-0.355-0.28-0.769-0.3-0.6v-0.9c1.03-0.816 1.96-1.592 3-2.399-0.11-0.582 0.15-1.239 0-1.8l-0.6-0.6s-0.27-0.544-0.3-0.602c-0.98 0.142-2.07 0.592-3 0.301-0.15-0.046-0.66-0.786-0.9-0.9 0.7-1.143 0.89-1.547 1.8-2.401-0.4-1.573-1.45-6.018-1.2-7.498 0.18-1.172 2.04-2.064 2.4-3.002 0.86-2.371-0.74-7.808-2.1-8.398-1.43-0.619-3.09 0.357-4.5-0.301-0.45-0.215-0.3-1.087-0.6-1.5-0.62-0.854-1.88-0.572-2.7-1.199-0.96-0.723-1.98-4.407-3-4.801-0.32-0.122-0.64 0.188-0.9 0-0.55 2.99-0.44 2.869-3.3 3.6-0.22-0.394-0.29-1.06-0.6-1.5-0.23-0.329-1.41-0.59-1.5-0.899-0.35-1.125 0.65-1.716 0.3-3-0.13-0.45-1.17-0.911-1.5-1.201 0 0 0.27-0.562 0.3-0.599 0.73 0.056 1.7-0.235 2.4 0 0.6 0.196 1.04 1.603 1.8 1.8 3.8 0.965 3.01-1.837 1.5-3-1.01-0.787-1.9-1.107-3-1.8zm-110.94 79.475c-0.23 0.02-0.44 0.16-0.66 0.02-0.15 0.25-0.93 0.46-1.2 0.6 0.01 0.16 0 3.9 0 3.9-0.15 0.23-0.76 0.37-0.9 0.6-0.13 0.2-0.14 1.36-0.3 1.5-0.45 0.37-0.75 0.16-1.5 0.3 0.37 0.2-0.71 0.36-0.9 0.3-0.14-0.04-0.29-0.5-0.6-0.6 0.21-1.57 0.6-3.32-0.9-3.9-0.6-0.23-0.69 0.43-1.5 0.3-0.25-0.04-0.96-0.85-1.2-0.9-2.37-0.51-3.39 1.07-4.5 1.8-0.3-0.19-0.58 0.12-0.9 0-0.46-0.17-0.78-1.3-1.2-1.5-1.06-0.5-3.71-0.29-4.8 0.3-1.43 0.77-0.68 3.99-1.5 5.4-0.13 0.22-2.07 1.79-2.4 2.1-0.35-0.32-1.47-1.7-1.8-1.8-3.13-0.9-5.05 4.47-6.6-1.2-0.17-0.01-1.15-0.46-1.8-0.3l-0.3 0.6c-0.99 0.64-1.82 1.94-0.3 2.7 0.25 0.13-0.42 0.33-0.3 0.6-0.66 0.17-1.44 0.72-2.1 0.6-0.77-0.16-0.68-1.48-2.4-1.2-0.42 0.07-2.51 2.06-2.7 2.1-0.67 0.14-2.06-0.19-3.001-0.3l-0.299 0.9c-2.373 0.62 0.198-1.22 0.6-1.5-0.08-0.46-0.319-1.39-0.301-1.5-1.209-0.18-1.564-0.13-2.698-0.3-0.085 0.4-0.357 0.41-0.601 0.6 0.309 1.22 0.301 1.74 0.601 2.7-0.76 0.35-1.774 0.19-2.101 0.9-0.291 0.59-0.253 2.27-0.299 2.7-0.61-0.18-0.601 0.48-1.201 0.3-0.394-0.12-0.618-1.33-1.199-1.5-1.567-0.47-2.982-0.09-4.5-0.3-0.244 3.02-1.642 4.97-3 6.9-0.142-0.1-0.76 0-0.901 0-0.629-1.33-0.544-1.07-0.9-3-0.506-0.14-0.469 0.23-0.6-0.3-0.31 0.16-0.88-0.11-1.199 0-0.141 0.04-0.291 0.49-0.6 0.6 0 0.01 0.028 1.41 0.299 0.9-0.075 0.29-0.299 1.2-0.299 1.2-0.693 0.11-1.454-0.22-2.101 0-0.431 0.14-0.778 1.32-1.199 1.5-2.194 0.96-4.106-0.31-5.7-0.9-0.637 0.87-1.087 1.03-1.5 2.4 0.01-0.23 0.113-2.01 0-2.4-0.056-0.18-0.555-0.22-0.601-0.6-0.431 0.15-1.079-0.16-1.5 0-0.234 0.08-0.787 0.67-1.199 0.9-0.29-0.18-0.601-1.04-0.901-1.2-0.431-0.22-3.543-0.8-4.199-0.6-0.056 0.01-0.245 0.55-0.301 0.6-1.754 1.54-0.843 1.18-0.599 3l0.3 1.2c0.009 0 1.405-0.03 0.899-0.3 0.347 0 0.845 0.02 1.201 0 0 0.1-0.046 1.19 0 1.2-0.713-0.14-0.497 0.43-1.201 0.3-0.244-0.04-0.956-1.15-1.199-1.2-0.928-0.19-4.145 0.82-4.801 1.2-0.3 0.17-0.083 0.69-0.299 0.91-0.365 0.34-1.031 0.29-1.5 0.59-0.196 0.12-0.412 0.83-0.6 0.9-0.178 0.07-0.74-0.09-0.9 0-0.216-0.55-0.45 0.01-0.6-0.3-0.121-0.24 0-0.93 0-1.19-0.525-0.13-0.169-0.12-0.3-0.61-0.525 0-1.314 0.15-1.801 0-0.665 0.93-1.405 2.19-2.399 2.7-1.452 0.74-4.876 0.91-5.701 2.1-0.319 0.44 0.011 0.75-0.299 1.2-0.525-0.18-0.234 0.34-0.3 0.6-0.769-0.23 0 0.9 0 0.9 0.788 0.24 0.975-0.32 1.8-0.3 0 0.04-0.008 0.89 0 0.9-0.74 0.22-0.675 0.1-1.5 0.3 0.45 0.31-0.844 0.28-0.9 0.3l-0.301-1.5c-0.206-0.12-1.415 0.16-1.5 0-0.252-0.49 0-1.83 0-2.4-3.215-0.71-2.183-0.51-3.599 2.1-0.057 0.1-0.901 0.88-0.901 0.9-0.244 1.07 0.442 2.02 0.301 2.7-0.075 0.32-0.797 0.6-0.9 0.9-0.365-0.16-1.097 0-1.5 0 0.047-0.84 0.132-1.19 0.3-2.1-0.262-0.2-0.535-0.18-0.601-0.6-0.571 0.03-2.098 0.3-2.098 0.3-0.02 0.02-0.855 0.25-0.902 0.3-0.421 0.41-0.187 1.68-0.6 2.1-0.6 0.59-1.78 0.36-2.4 0.9-0.206 0.17 0.002 0.77-0.297 0.9-0.423 0.16-1.088-0.17-1.502 0 0.31-0.15-0.6-0.6-0.6-0.6 0.055-0.09 0.6-0.9 0.6-0.9 1.069-0.32 2.119-0.16 2.701-0.9 0.056-0.07 0.6-0.9 0.6-0.9 0.102-0.45-0.301-1.8-0.301-1.8-2.84 0-4.481 0.34-5.998 2.4-0.254 0.33-0.255 1.04-0.602 1.2-0.918 0.41-1.97-0.13-2.701 0.3-0.384 0.22-1.517 3.79-1.199 4.8 0.066 0.21 0.75 0.58 0.9 0.9 0.544 0 1.257-0.13 1.801 0-0.039 0.06-0.366 0.58-0.301 0.6-2.296 0.41-2.371 0.91-3.299 2.7-2.991 0-3.461 0.25-4.201 2.4v0.6c-0.61 0.49-1.7613 0.15-2.4001 0.6-1.4712 1.02-0.2988 5.22-0.2988 7.8 1.3029 0.36 3.1579 0.97 3.5999 2.1 0.121 0.32-0.198 0.6 0 0.9-0.704 0.49-4.6679 4.01-4.7991 4.5-0.2813 0.96 0.2131 1.59 0.2969 2.4 0.3937-0.02 0.9945 0.45 1.8007 0.3 0.6385-0.13 0.7885-0.93 1.1995-1.2 0.01 0 1.333 0.47 0.902 0.6 0.186 0.14 0.797 0.4 0.9 0.6 0.338 0.68 0.066 1.18 0.299 2.1-0.412 0.08-0.441 0.57-0.599 0.9-0.329-0.16-0.686-0.83-0.901-0.9-0.637-0.21-1.443 0.1-2.0993 0-0.3187 0.98-1.3492 2.77-1.1992 3.9 0.0187 0.19 0.8422 0.77 0.8984 0.9 0.4513 1.02-0.0837 1.03 0 2.1-0.3837-0.19-0.2421 0.46-0.8984 0.3-0.075-0.01-0.3371-0.53-0.5996-0.6 1.19-0.45-1.6799-0.45-0.9024-0.3l-0.2988 1.2c1.2 0.73 3.3849 1.26 4.2013 2.4 0.449 0.64 0.307 1.62 0.898 2.1 0.938 0.78 2.099 0.32 2.401 1.8 0.336 1.72-0.854 2.21-0.6 3.6 0.131 0.76 1.501 1.19 1.801 1.8 0.224 0.48 0.571 2.16 0.599 2.4 0.122 1.35-0.348 4.71 0.299 6.3h0.301c0.899 0.45 1.556 2.11 2.4 2.4h0.6c0.15 0.13 0.093 0.79 0.299 0.9 0.666 0.34 1.407-0.08 2.101 0.3 0.553 0.31 2.979 3.73 1.799 4.8 1.49 1.17 4.51 1.94 4.2 4.8-0.009 0-0.788 1.24-0.899 1.5 0.374-0.19 0.234 0.46 0.899 0.3 0.328-0.08 0.412-0.87 0.599-1.2 0.235 0 0.995 0.12 1.201 0 0.629 0.61 3.066 2.44 0.901 3-0.217-0.26-0.599-1.09-0.901-1.2-0.337-0.12-0.891 0.14-1.201 0-0.15 0.29-0.665 0.7-0.898 0.9 0 0 0 1.1 0.299 0.6 0.206 0.69 0.13 0.5 0.3 1.2 0.6-0.28 0.299 2.1 0.299 2.1 1.81-0.59 2.458-0.75 4.5-0.6 0.048-0.1 0.245-0.59 0.301-0.6 0.272-0.07 1.472 0.23 1.199 0.3 0.451 0.77 0.975 1.43 1.5 2.1-1.377 0.42-2.979 0.46-3.299 1.8-0.046 0.15 0.075 0.76 0 0.9-0.187 0.3-1.087 0.56-1.201 0.9-0.159 0.42 0.15 1.07 0 1.5 0.544-0.26 1.004-0.03 1.5-0.3 0.554-0.32 0.985-1.39 1.5-1.8 1.013-0.82 2.007-1.27 3.002-2.1 0.693 1.01 1.517 2.43 2.399 3.3 0.366 0.37 1.604 0.73 1.8 1.2 0.348 0.87-0.365 1.12-0.3 1.8l0.599 0.9c0.441 2.2 0.123 1.65 0.901 3.3 0.328-0.13 0.853 0.09 1.199 0 0.825-0.22 1.735-1.56 2.4-2.1 2.26 2.05 4.163 3.69 7.801 1.8-0.196 1.78-0.395 3.54 1.199 4.2 0.479 0.2 0.92-0.08 1.201 0.3 0.207 0.28 0.759 2.37 0.899 2.7 3.404-0.5 4.305-0.09 6.601 1.2 0.46-0.29 1.686-1.63 2.399-1.5 0 0-0.234 1.45-0.299 1.8 0.215 0.14 1.676 0.99 1.799 1.2 0.244 0.47-0.123 1.28 0 1.8 0.112 0.52 1.434 1.47 1.5 1.8 0.121 0.7-0.44 1.12-0.6 1.8 0.825-0.19 2.081-0.75 3-0.6 0.844 0.13 1.481 1.42 2.1 1.8 0.479 0.3 0.965-0.01 1.5 0.3 0.815 0.47 2.326 3.62 2.701 4.8 1.134-0.37 3.215-0.9 4.5-0.9 0.375-0.01 1.02 0.6 1.799 0.3v-0.3c0.487-0.25 0.534-0.95 0.9-1.2 0.488-0.34 0.928 0 1.5-0.3 0.9 2.97-0.28 1.9 2.701 2.7 0.065-0.1 0.477-0.86 0.6-0.9 0.337-0.14 0.572 0.17 0.9 0 0.253 0.21 0.608 1.04 0.899 1.2 0.834 0.45 3.253 0.49 4.201 0.6 0.102 0.68-0.235 1.46 0 2.1 0.459 1.28 6.029 2.31 7.799 2.7 0.13 0.53-0.14 0.97 0 1.5 0.01 0.05 2.62 2.66 2.7 2.7 2.63 1.19 2.72-0.84 3.9-1.2 2.4-0.74 3.28 0.69 4.2 1.2 0.49 0.27 0.95 0.04 1.5 0.3 0.17-0.44 0.5-0.4 0.9-0.6-0.23-1.67-0.15-2.59-0.3-3.6 0.48 0.12 0.72-0.16 1.2-0.3 0.26 0.46 1 2.22 1.5 2.4 1.7 0.64 3.93-0.56 5.1-0.6 2.02-0.08 2.27 0.67 3.3 1.5 2.81-1.23 3.05-0.06 6.3-0.6 0.3-0.05 1.62-0.88 1.8-0.9 1.04-0.17 2.05 0.41 2.7 0.3 0.28-0.06 0.88-0.76 1.2-0.9-0.14-0.53 0.13-0.97 0-1.5-0.03-0.11-3-4.37 0.9-3.3 0.13 0.03 0.66 0.86 0.9 0.9 0.61 0.11 0.92-0.36 1.2-0.3-0.32-0.24 0.24-1.29 0.3-1.5-0.34-0.18-0.13-0.52-0.3-0.6-0.53-0.26-0.99-0.18-1.5-0.3 0.04-0.61-0.33-0.9-0.3-1.2 0.07-1.07 1.89-1.63 2.4-2.4 0.37-0.6 0.21-1.46 0.6-2.1 0.45-0.77 3.98-2.3 5.4-2.1 0.14 0.02 0.83 0.87 0.9 0.9 0.31 0.11 0.91-0.17 1.2 0 0.4 0.24 0.76 1.32 1.2 1.5 0.22 0.09 0.66-0.15 0.9 0 0.26-3.39 0.12-2.6 2.7-2.7-0.04 0.8 0.19 1.92 0 2.7-0.02 0.03-0.85 0.56-0.9 0.6 0.54 2.03-0.12 1.44 1.2 2.7-0.32 0.1-0.47 0.55-0.6 0.6-0.47 0.15-1.02-0.14-1.5 0 0.48 0.18-1.15 0.29-1.2 0.3-0.08-0.21-0.13-0.64-0.3-0.9-1.49-2.21-1.11-2.1-4.8-2.1-0.21 0.59-0.21 1.57-0.6 2.1-0.34 0.43-1.39 0.53-1.8 0.9-0.45 0.4-0.28 0.29-0.6 0.9 0.01 0 0 0.85 0 0.9 0.21 0 1.02-0.13 1.2 0-0.02 0.1 0.22 1.04 0.3 1.5-1.48 0 0.11 2.36 0.3 2.7-0.98 0.77-1.8 1.57-2.7 2.4 0.16 0.53 0.37 0.65 0.3 1.2 3.12 1.83 3.74 1.5 5.4-1.5 0.2 0.25 0.99 0.32 1.2 0.6 0.26 0.36 0.06 0.82 0.3 1.2 1.21 1.96 2.67 1.01 4.2 0.3-0.25-2.27-0.05-2.67 0.3-4.2 0.29 0.17 0.88-0.14 1.2 0 0.45 0.19 0.85 1.63 1.5 1.8 2.26 0.56 2.58-1.14 3.6-1.8 0.52-0.34 0.96-0.04 1.5-0.3 0.52-0.27 1.03-1.15 1.5-1.5 0.24 0.11 0.65-0.06 0.9 0 0.48 0.11 0.84 1.03 1.2 1.2 1.01 0.47 1.58 0.06 2.7 0 0.05-0.2 0.58-0.84 0.6-0.9 0.41-1.62-0.93-2.42 0.3-3.3 0.31 0.14 0.86-0.12 1.2 0 0.47 0.16 0.55 1.25 0.9 1.5 1.6 1.17 2.92 0 4.2-0.6-0.04-0.88 0-1.83 0-2.7-0.69-0.28-2.47-0.81-2.7-1.5-0.12-0.33 0.14-0.89 0-1.2 0.78 0.22 0.66-0.5 1.5 0 0.99 0.58 0.4 1.95 2.4 1.8 1.17-0.09 2.29-1.4 2.7-2.4 0 0 0.74-0.4 0.3-0.6-0.5-0.23-1.08-1.18-0.9-2.1 0.02-0.14 0.82-0.5 0.9-0.6 0.7-0.94 0.54-1.67 0.9-3-0.26-0.2-0.54-0.18-0.6-0.6-0.1 0-0.83 0.06-0.9 0v-0.9c4.1 1.9 4.55 0.23 8.4-0.9 0.08-0.53 0.03-1.7 0.3-2.4 0.12-0.34 1.08-0.77 1.2-1.2 0.16-0.6-0.12-1.19 0-1.8-0.27-0.21-0.51-0.19-0.6-0.6-0.4 0-1.15 0.15-1.5 0-0.21-0.09-0.48-1.13-0.6-1.2 0.28-0.01 0.7-0.46 0.9-0.6 1.66 1.12 1.01 0.98 3.3 0.9-0.08-0.72 0.36-0.49 0.3-1.2-0.04-0.31-0.88-1.08-0.9-1.2-0.21-1.06 0.48-1.33 0.6-1.8 0.13-0.58-0.16-1.23 0-1.8 0.17-0.64 1.12-1.24 1.5-1.8-0.13-0.21 0.04-0.68 0-0.9-0.17-0.68-1.54-1.16-2.1-1.5 0.73-2.5 1.65-3.31 2.1-6.3-0.25-0.05-0.8-0.58-0.9-0.6-1.8-0.4-2.68 1.42-3.6 2.1-0.17 0.12-0.5 0.74-0.6 0.9-0.13-0.61-0.34-2.03-0.6-3-0.08-0.24-0.86-0.95-0.9-1.2-0.29-1.78 1.46-2.02 1.8-3.3v-0.3c-0.06 0.23-0.38-0.88-0.3-1.2 0.1-0.48 2.46-4.61 1.2-5.4-1.78-1.12-2.87 0.65-3.9 0.9-0.18 0.04-0.75-0.07-0.9 0-0.08-0.32-0.56-0.48-0.6-0.6-0.33-0.94 0-2.59 0-3.6 0.16 0.55 0.3-0.3 0.3-0.3-1.03-2.26-0.81-1.69-3.3-1.5-0.27 1.04-0.9 4.89-1.8 5.4-0.72 0.4-1.71-0.01-2.4 0.3-0.14 0.06-0.85 0.88-0.9 0.9-0.66 0.14-0.88-0.37-1.2-0.3 0.35 0-0.3-0.9-0.3-0.9-0.09-1.08 1.1-2.95 1.2-3.6 0.15-1.2-0.45-2.2-0.6-3l0.3-0.9c0.56 0.12 1.24-0.18 1.8 0 1.4 0.47 0.92 3.15 3.3 2.1 2.36-1.06 0.95-3.62 0.3-5.1-1.58 0.12-2.25 0.1-3.6 0.3 0.59-2.03 0.39-1.82 0-3.6-0.28-0.03-1-0.38-1.5-0.6 0 0-2 1.94-1.5 2.1 1.29 0.4 0.59 3.83 0 4.8-0.44 0.71-1.9 1.17-2.7 1.5 0.22-3.83-0.11-3.02 2.4-5.4-0.37-1.1-0.27-1.38-0.6-2.4 0.15-0.12 0.81-0.43 0.9-0.6 0.26-0.58-0.25-0.88 0.3-1.2 0 0-0.55-1.56-0.6-1.8 0.3 0.19 0.89 0.11 1.2 0.3 0.19 0.11 0.41 0.84 0.6 0.9 0.33 0.11 1.44-0.22 1.2-0.3 0.06-0.18 0.83-0.43 0.9-0.6 0.31-0.91-0.32-2.4 0-3.3 0.23-0.66 1.86-0.38 1.5-2.4-0.12-0.67-1.34-1.37-1.8-1.8 0.9-1.95 0.9-1.17 0.3-3-0.44-1.35-0.84-2.8-2.1-3.3-3.28-1.29-3.71 0.56-3.3 3.3-0.22 0.16-1.44 0.69-1.5 0.9v0.6h-0.6c-0.22-0.8-0.06-1.38-0.6-1.8l-0.3-0.3c0.14-0.14-0.09-0.7 0-0.9h0.3c1.15-0.58 1.62-1.71 2.4-2.7-2.95-0.53-2.95-1.85-3.9-5.1 0.71-0.33 2.24-1.47 3-1.5 1.59-0.07 1.22 0.84 1.8 1.2 0.54 0.34 0.91-0.05 1.5 0.3 0.37-0.25 0.78-0.7 1.2-0.9-0.23-0.88 0.08-1.48-0.3-2.1-0.05-0.06-1.2-0.6-1.2-0.6-0.28-1.12 0.83-1.09 0.6-2.4-0.12-0.67-1.17-1.03-1.5-1.5-0.27-0.38-0.08-0.83-0.3-1.2-0.53-0.84-1.83-1.31-2.7-1.8 0.13-0.58-0.17-1.23 0-1.8 0.09-0.32 1.14-1.06 1.2-1.5 0.17-1.67-1.58-2.56-2.7-3-0.61-0.24 0.82-0.66 1.2-0.6l0.6 0.6c2.66 0.71 2.17-1.86 2.1-3.3-0.39-0.06-0.43-0.54-0.6-0.6-1.46-0.5-3.37 1.16-4.2 1.5l-0.6-0.9c0.05-0.17 0.83-0.43 0.9-0.6 0.17-0.5 0-1.26 0-1.8 0.46 0.2 0.17-0.48 0.9-0.3 0.12 0.03 0.44 0.8 0.6 0.9 1.53 0.95 2.16 0.2 3.3-0.6-1.23-3.04-1.26-4.24-4.8-2.4 0.04-0.03 0-0.84 0-0.9 1.19-0.52 1.78-0.43 2.4-1.5 0.07-0.14 0.43-0.22 0.6-0.3-0.14-0.32 0.11-0.87 0-1.2-0.21-0.59-1.36-1.15-1.5-1.8-0.39-1.73 0.26-3.02 0-4.8 0.29 0.17 0.59-0.5 1.2 0 0.64 0.54 0.08 3.02 0 4.2 0.57-0.08 1.09 0.39 2.1 0 0.09-0.04 0.21-0.58 0.3-0.6 0.02-0.27 0.85-0.78 0.6-1.8-0.02-0.07-0.64-0.68-0.6-0.9 0.06-0.44 1.33-0.74 1.2-2.4-0.09-0.98-1.1-0.69-0.6-2.1 0.02-0.08 0.8-0.75 0.9-0.9 0 0-0.07-0.77-0.3-0.3-0.19-0.1-0.33-1.09-0.6-1.2-0.61-0.22-1.74 0-2.4 0v-0.6h0.3c0.05-0.21 0.14-1.37 0.3-1.5 1.28-1.14 2.67 0.13 4.2-0.3 0.17-0.05 0.61-0.76 0.9-0.9 0-0.27-0.12-0.95 0-1.2-1-1.23-1.86-1.89-3.3-2.7 0-0.37 0.18-1.5 0-1.8-0.36-0.59-0.95-0.18-1.5-0.6-0.68-0.5-0.99-2.13-1.2-3-0.33-0.07-0.48-0.56-0.6-0.6-3.74-1.29-2.34 3.05-1.8 4.5-0.52 0.18-0.55 0.02-0.9 0.3-1.16 0.92-1.02 0.8-2.7 0.3 0.22-0.36-0.63-0.41-0.3-0.6 1.69-1.02 0.99-2.94 0.9-5.4l0.9-0.3c1.51-2.66 0.28-2.49-2.4-2.4 0.21 3.01 0.64 2.16-1.8 2.7-1.56-2.28-2.17-2.7-5.1-2.7-0.11 0.26-0.36 1.16-0.6 1.5 0.11 0.18 0.85 0.78 0.9 0.9-0.16 0.12 0 1.28 0 1.5-0.84 0.16-1.18 0.02-1.8 0.3-0.44-1.69-0.77-4.28-1.5-5.7 0.88-0.7 1.45-1.15 2.1-2.1-0.25-0.41-0.21-1.08-0.3-1.5-0.21-0.03-1.54-0.2-1.2 0-0.91 0.49-0.97 0.08-1.5 0.9-0.13 0.19-0.58 1.61-0.6 1.8-0.35-0.08-1.18-0.31-1.2-0.3-0.18-0.24-0.36-0.74-0.6-0.9-0.33 0.22-0.49-0.51-0.6-0.6 2.23-1.25 2.3-0.86 1.8-3.3-0.38-0.06-0.43-0.54-0.6-0.6-0.38-0.13-1.41 0.25-1.2 0.3h-0.6c-0.44 0.15-0.4 1.33-0.9 1.5-0.33 0.11-0.9-0.17-1.2 0-0.37-1.39-0.91-3.44-2.1-3.9-0.08-0.03-0.16-0.03-0.24-0.02zm125.34 14.42c-0.25 0.39-1.04 0.71-1.2 1.2-0.01 0.02 0.21 0.87 0.3 1.2-0.33 0.07-0.48 0.56-0.6 0.6-0.78 0.27-1.82 0.2-2.4 0.3-0.23 2.8-1.03 4.07-0.9 6.3-1.2-2.24-2.05-2.06-3.9-0.6-0.29-0.35-0.51-1.28-0.9-1.5-0.97-0.54-5.25-0.26-6.9-0.6-0.08 0.32-0.57 0.47-0.6 0.6-0.39 1.1 0 3.02 0 4.2-0.05 0.02-0.6 0.3-0.6 0.3-0.22-0.45-0.56-0.6-0.9-0.9 0.78-2.57 0.08-6-3-3.9-0.39 0.26-0.27 1.19-0.6 1.5-0.3 0.28-1.18 0.46-1.5 0.6 0.21 0.84-0.09 1.4 0.3 2.1 0.58 1.06 3.18 0.9 3.6 2.1 0.18 0.51-0.19 0.99 0 1.5-0.11 0-0.83-0.06-0.9 0-0.94-0.85-1.28-1.39-1.8-2.7-1.01-0.14-2.68 0.06-3.9-0.3-0.11-0.03-0.72-0.87-0.9-0.9-1.14-0.18-1.53 0.71-2.7 0.3-0.13-0.04-0.29-0.54-0.6-0.6 1.57-0.9 1.44-0.75 1.2-3l-0.9-0.3c-0.26 0.36-0.69 0.29-0.9 0.6-0.18 0.26-0.09 1.32-0.3 1.5-0.71 0.57-1.77-0.12-2.4 0.9-0.26 0.42-0.79 2.84-0.9 3.3-5.8-1.7-3.65 2.69-7.2 2.7 0 0-0.75-0.28-0.9-0.3v-0.6c0.41-0.14 1.07 0 1.5 0-0.14-0.09 0.25-0.52 0.3-0.6-0.3-0.24-0.46-0.16-0.6-0.6-1.21-0.22-3.03-0.76-3.9-0.6-0.56 0.1-1.33 1.22-1.8 1.5-1.13 0.65-2.34 0.6-3.6 1.2-0.23 0.1-0.61 0.84-0.9 0.9-1.01 0.19-1.26-0.59-2.1-0.3-0.1 0.03-0.53 0.79-0.6 0.9-1.08 1.37-0.83 2.03 0 3.6-0.7 0.17-1.36 0.33-2.4 0.6 0.14-0.32-0.12-0.87 0-1.2 0.03-0.1 0.79-0.52 0.9-0.6-0.19-0.51 0.18-0.99 0-1.5-0.07-0.17-0.77-0.61-0.9-0.9-0.61 0.26-1.29 0.2-1.8 0.3-0.14 1.2-0.47 3.29-0.6 4.5-0.93 0-0.85-0.12-1.8 0 0.15 0.43-0.16 1.07 0 1.5 0.16 0.47 1.62 0.93 2.1 1.2-0.01 0.05-0.12 1.68-0.3 1.2-0.19 0.31 0.12 0.56 0 0.9-0.07 0.16-0.74 0.62-0.9 0.9h-0.6c-0.45-0.95-0.65-1.66-1.2-2.4-1.35-1.79-1.12-0.73-3.3-1.5-0.1-0.03-0.52-0.87-0.6-0.9-0.52-0.18-1 0.18-1.5 0-0.16 0.32-0.84 0.68-0.9 0.9-0.29 0.87 0.07 1.75-0.3 2.4-0.6 1.04-2.04 0.63-3 1.2-1.17 0.68-1.78 3.31-2.1 4.8-2.39-1.12-0.93-1.12-3.3 0 0.1 0.52-0.15 0.69-0.3 1.2 1.25 0.89 1.28 0.98 2.7 1.2-0.1 0.04-0.07 1.1-0.3 1.2-0.36 0.15-1.11 0-1.5 0-0.17 0.34-0.84 0.88-0.9 1.2-0.28 1.21 0.53 2.46 0.6 3.3 0.04 0.6-0.33 0.89-0.3 1.2h-0.6c-0.63-0.21-1.18-1.92-1.8-2.1-0.97-0.28-1.06 0.33-1.8 0.3-0.77 2.59-0.98 2.38 0.9 3.9-0.61 0.55 0.13 3.92 0.3 5.1-0.45-0.44-1.04-0.76-1.5-1.2 0.62 0-1.64-0.25-0.9 0-0.35 0.29-0.86 0-1.2 0.3v0.6c-0.94 2.7 0.84 3.03 1.8 5.4-0.1 0.1 0.05 0.77 0 0.9-0.15 0.37-1.6 0.79-1.8 1.2-0.15 0.27 0.05 0.89 0 1.2-0.06 0.28-0.88 1.41-0.9 1.5-0.15 0.57 0.13 1.22 0 1.8 0.54 0.47 1.7 1.21 2.1 1.8 0.33 0.49 0.21 1.11 0.6 1.5 0.42 0.42 1.13 0.41 1.5 0.9 0.89 1.22 1.66 4.33 2.1 6 0.44 0.1 1.06 0.03 1.5 0.3-0.13 0.12-0.22 0.77-0.3 0.9-0.28 0.4-1.29 0.52-1.5 0.9-0.54 0.93 0.1 3.27 0 4.8 0.55 0.23 0.14 0.02 0.3 0.6 1.21 0.04 1.87 0.21 3.3 0-0.13 0.33 0.08 0.86 0 1.2-0.26 0.95-2.02 1.64-0.9 3.3 0.16 0.25 1.12 0.32 1.2 0.6 0.42 1.44-1.01 2.22 0.3 3 0.36 0.21 1.66 0.52 2.1 0.6-0.12 1.07-0.62 2.49 0 3.6 0.1 0.19 0.84 0.4 0.9 0.6 0.19 0.7-0.28 1.73 0 2.4 0.06 0.17 0.44 0.15 0.6 0.3 0.8 0.71 1.58 0.6 2.4 1.2 0.29 0.22 0.08 0.56 0.3 0.9 1.17 1.91 2.77 0.84 4.2 0-0.17 2.09-0.24 2.87-0.6 4.8 0.21 0.06 1.8 0.44 1.5 0.3 0.82-0.54 1.78-0.35 2.1-1.5 0.07-0.32-0.16-0.93 0-1.2 0.15-0.28 1.09-0.11 1.2-0.3 0.11 0.25-0.07 0.65 0 0.9 0.05 0.19 0.87 0.81 0.9 0.9 0.1 0.48-0.41 1.74-0.3 1.8-0.19 0.06-0.56 0.51-0.6 0.6 0.06 0.05 0 0.82 0 0.9 1.48 0.65 1.88 0.85 4.2 0.6 0 0.18-0.12 1.43 0 1.5-0.25 0.36-0.86 0.6-1.2 0.9 0.09 0.27 0 0.9 0 1.2 0.43 0.17 0.39 0.5 0.6 0.9 1.64-0.31 1.74-0.28 2.7-0.9 0.28-0.19 1.3-0.62 1.5-0.9 0.52-0.77 0.12-1.65 0.9-2.1 0.37-0.22 1.06 0.12 1.5 0l0.6-0.6c1.56-0.36 0.99 0.12 2.1 0.3-0.16 0.49 0 1.28 0 1.8-0.83 0.3-1.71 0.61-2.4 0.9 0.06 0.5 0.3 2.1 0.3 2.1 0.47 0.07 0.94 0.47 1.8 0.3 0.41-0.08 1.09-0.95 1.5-1.2 1.86-1.18 2.94-0.47 5.1-1.2 0.12-0.04 0.27-0.53 0.6-0.6-0.13-0.66 0.27-1.51 0-2.1h-0.3c-0.55 0-1.1-0.68-1.5-0.9 0-0.55 0.12-1.26 0-1.8 0.27-0.23 0.43-0.9 0.9-0.9h0.3c0.56 0.54 1.27 1.88 2.1 2.1 0.34 0.09 0.86-0.13 1.2 0-0.36 1.1-0.25 1.52-0.6 2.7 1.08 0.47 2.88 1.48 4.5 0.6 1.45-0.79 0.43-1.96 0.3-2.7-0.14-0.78 0.34-1.11 0.3-1.5 2-0.12 3.69-0.43 5.7-1.2 0.09-0.04 0.21-0.58 0.3-0.6h0.6c0.44-0.73-0.04-1.72 0.3-2.7 0.21-0.66 1.22-0.98 1.5-1.5 0.31-0.61 0.04-0.92 0.3-1.5 1.29 0.05 4.04 0.18 5.4-0.6 0.61-0.35 0.92-1.39 1.5-1.8 0.26-0.2 0.58 0.11 0.9 0 1.95-0.76 0.63-2.71 0-3.6 1.04-0.28 2.98-0.57 3.3-1.5 0.16-0.49-0.24-1.38 0-1.8h0.3c1.2-0.61 2.05-1.81 3-2.7 0.31 0.14 0.86-0.12 1.2 0 0.73 0.26 0.89 1.8 2.7 1.2 0.21-0.07 0.57-0.75 0.9-0.9-0.28-0.46-0.02-1.1-0.3-1.5-0.14-0.18-1.66-0.83-1.8-1.2-0.13-0.33 0.18-0.61 0-0.9 2.82-0.74 3.35-0.61 3-3.9 1.01-0.63 2-0.8 3-1.5 0.31-0.22 0.24-0.66 0.6-0.9-0.22-1.4-0.58-3.27 0.6-3.9 2.19-1.17 2.87 0.7 3.9 0.9 1.25 0.25 1.4-0.47 2.1-0.6-0.08-0.72 0.36-0.49 0.3-1.2-0.03-0.28-0.67-0.95-0.6-1.5 0.01-0.14 0.87-0.84 0.9-0.9 0.13-0.35-0.17-0.57 0-0.9-0.48-0.22-1.29-0.62-1.8-0.9 0.87-1.89 0.76-2.54 0-4.5 0.97 0.54 1.93 1.06 3 1.5-0.08 0.01 1.51 0.03 1.8 0 0.22-0.51 1.14-3.35 1.5-3.6 0.77-0.55 1.88-0.11 2.7-0.6 0.64-0.39 0.25-1.7 0-1.5 0.13-0.49-0.16-1.04 0-1.5 0.04-0.13 0.53-0.29 0.6-0.6 2.36 0.18 2.72 0 4.2-0.6 0.23-2.15 0.25-3.05-1.2-4.2-0.15-0.11-0.84-0.43-0.9-0.6-0.23-0.65 0.1-1.41 0-2.1 0.48-0.14 0.48 0.25 0.6-0.3 0.49 0.22 0.99-0.22 1.5 0 0.38 0.17 0.25 1.27 0.6 1.5 1.76 1.2 4 0.38 4.5-1.2 0.35-1.16-0.16-1.13-0.3-2.1h-0.6l0.3-2.4c-1.07 0.08-1.24 0.05-1.8 0-0.19-0.51 0.18-0.99 0-1.5-0.08-0.19-0.79-0.42-0.9-0.6-0.32-0.51-0.04-0.93-0.3-1.5 0.33-0.18 0.54-0.81 0.9-0.9 0.19-0.05 0.7 0.13 0.9 0 0.55-0.4 0.87-1.88 1.5-2.1 0.67-0.25 1.97 0.03 2.7 0 0.47-1.62 1.01-2.91 1.5-4.2-0.23-0.15-0.32-1.04-0.6-1.2-0.58-0.33-1.35-0.31-1.8-0.6-1.76-1.12 1.97-2 2.7-2.7 0.28-0.28 0-0.92 0.3-1.2-0.33-0.07-4.08-0.82-4.2-0.9-0.16-0.1-1.03-2.34-1.2-2.7 1.5-0.48 1.68-0.8 2.7-1.5-0.44-0.39-0.42-1.13-0.9-1.5-0.42-0.31-0.69-0.15-1.2-0.3 0.01-0.05-0.23-1.09-0.3-1.5 0.94-0.44 1.61-0.75 2.4-1.2-0.16-0.43 0.15-1.07 0-1.5-0.08-0.19-0.79-0.42-0.9-0.6-0.41-0.64-0.66-1.8-0.9-2.4-0.16 0.5-0.3-0.9-0.3-0.9 1.28-0.75 0.34-2.51-1.2-2.4l-0.6 0.6c-0.57 0.28-1 0.38-1.5 0.6-0.01 0.05-0.04 1.95 0 1.8 0.18 0.38 0.76 0.61 0.9 0.9 0.3 0.64 0.11 1.24 0.3 1.8-0.67-0.58-1.19-0.9-1.8-1.5-0.52 0.18-1-0.18-1.5 0-0.38 0.13-0.84 1.37-1.2 1.5-0.52 0.18-1-0.18-1.5 0-0.04-0.06-0.3-0.6-0.3-0.6-0.15 0.46-0.3-1.14-0.3-1.2 0.06-0.05 0.87-0.53 0.9-0.6 0.21-0.76-0.37-1.14-0.3-1.5h-0.6c-0.41 0.14-0.79 1.52-1.2 1.8-0.21 0.13-0.7-0.05-0.9 0-0.21 0.05-0.99 0.83-1.2 0.9-1.8 0.58-3.44 0.6-5.7 0.6-0.54 1.12-0.5 1.08-0.9 2.7-0.05 0-0.9-0.01-0.9 0-0.07-0.72-0.3-2.14-0.3-3.3 0.67-0.23 0.92-0.14 1.8-0.3-0.11-1.35-0.1-2.96-0.6-4.5 1.41 0.27 1.55 0.45 3 0l0.3-0.6c0.51-0.2 1.54 0 2.1 0-0.06-0.28 0.41-0.59 0.3-1.2-0.24-1.25-1.97-2.4-2.7-3.3-0.32 0.44 0.01 0.75-0.3 1.2-0.24 0.33-0.58 0.05-0.9 0.3-0.36 0.27-0.62 1.14-0.9 1.5-0.06-0.08-0.82-0.21-0.9-0.3-0.26-0.25-0.19-0.8-0.3-1.2-0.32-0.06-0.48-0.56-0.6-0.6-1.12-0.38-1.73 0.4-2.4 0.6l-0.3-0.3c0.1-1.8-0.11-2.03-0.3-3.3-0.24 0-1.01 0.12-1.2 0zm-96.24 38.07c-0.23 0.03-0.44 0.17-0.66 0.03-0.41 0.5-1.08 0.98-1.5 1.5 0.51 1.09 0.49 2.84 2.7 2.1 0.21-0.07 0.57-0.75 0.9-0.9 0-0.43-0.14-1.11 0-1.5-0.28-0.21-0.99-1.11-1.2-1.2-0.08-0.03-0.16-0.04-0.24-0.03zm5.94 24.93c-0.38 0.48-1.13 1-1.5 1.5 0.09 0.13 0 0.75 0 0.9 0.32 0.15 0.91 0.84 1.2 0.9 3.2 0.72 1.9-2.3 1.5-3.3-0.27 0-0.98 0.11-1.2 0zm-3.6 24.3c-0.07 0.17-0.72 0.46-0.9 0.6 0.13 0.52 0 1.26 0 1.8 2.96 0.75 1.87 1.52 2.7-1.5-0.27-0.21-0.51-0.19-0.6-0.6-0.5-0.15-0.81-0.05-1.2-0.3zm-155.66 11.08c-0.472 0.09-0.105 1.12 0.256 1.22 1.65 0.49 0.432-1.08 0-1.2-0.104-0.03-0.188-0.03-0.256-0.02zm2.956 0.02c-0.094 0.53-0.759 1.25-0.6 2.1 0.037 0.23 0.525 0.51 0.6 0.9 0.535 0.16 0.759-0.01 1.199 0.3-0.094-0.35-0.6-1.8-0.6-1.8 0.291-0.15 0.462-0.35 0.303-0.9-0.058-0.17-0.855-0.43-0.902-0.6z" transform="matrix(.8 0 0 -.8 186.65 644.4)" fill="#f56600"/></g></svg>
